<?xml version="1.0" standalone="no"?><!DOCTYPE svg PUBLIC "-//W3C//DTD SVG 1.1//EN" "http://www.w3.org/Graphics/SVG/1.1/DTD/svg11.dtd"><svg t="1752983855024" class="icon" viewBox="0 0 1024 1024" version="1.1" xmlns="http://www.w3.org/2000/svg" p-id="876" xmlns:xlink="http://www.w3.org/1999/xlink" width="256" height="256"><path d="M905.551448 266.010483a113.416828 113.416828 0 0 0-59.038896-54.307311L457.127724 68.537379a105.701517 105.701517 0 0 0-134.514758 62.958345l-14.900966 41.683862h-81.849379a103.565241 103.565241 0 0 0-104.624552 104.642207v560.075035a103.565241 103.565241 0 0 0 104.642207 104.642206h417.739034a103.565241 103.565241 0 0 0 104.571587-104.642206v-41.683862l163.628137-450.754207a104.48331 104.48331 0 0 0-6.320551-79.448276zM360.377379 148.815448a62.587586 62.587586 0 0 1 81.84938-37.764414l180.082758 65.324138H350.155034z m509.740138 184.072828L744.342069 675.063172V280.982069a95.638069 95.638069 0 0 0-27.542069-69.278897l115.623724 41.683862a55.878621 55.878621 0 0 1 35.310345 33.844966 48.551724 48.551724 0 0 1 2.401103 45.656276z" fill="#003D7A" p-id="877"></path></svg>